<svg xmlns="http://www.w3.org/2000/svg" xmlns:xlink="http://www.w3.org/1999/xlink" xmlns:lucid="lucid" width="1400" height="1211"><g transform="translate(-280 0)" lucid:page-tab-id="0_0"><path d="M0 0h1870.87v1322.83H0z" fill="#fff"/><path d="M300 686a6 6 0 0 1 6-6h88a6 6 0 0 1 6 6v8a14.5 14.5 0 0 1-4.24 10.24l-1.52 1.52A14.5 14.5 0 0 1 384 710h-78a6 6 0 0 1-6-6z" fill="#fff"/><path d="M400 680v20l-10 10h-90" fill="none"/><path d="M400 680v20l-10 10h-10m-10 0h-20m-10 0h-20m-10 0h-10" stroke="#3a414a" stroke-width="2" fill="none"/><path d="M300 686a6 6 0 0 1 6-6h1348a6 6 0 0 1 6 6v168a6 6 0 0 1-6 6H306a6 6 0 0 1-6-6z" fill="none"/><path d="M325.05 680.07h19.98m10 0H375m10 0h19.98m10 0h19.98m10 0h19.98m10 0h19.97m10 0h20m9.98 0h19.98m10 0h19.98m10 0h19.98m10 0h19.97m10-.02h19.97m10 0h19.98m10 0h19.97m10 0h19.98m10 0h19.98m10 0h19.97m10 0h19.98m10 0h19.98m10 0h19.98m10 0h19.98m10 0h19.97m10 0h19.98m10 0l20-.02m9.98 0h19.98m10 0h19.98m10 0h19.98m10 0h19.97m10 0h19.97m10 0h19.98m10 0h19.97m10 0h19.98m10 0h19.98m10 0h19.97m10 0h19.98m10 0l19.97-.02m10 0h19.98m10 0h19.98m10 0h19.97m10 0h19.98m10 0h20m9.98 0h19.98m10 0h19.98m10 0H1634m10 0h9.98l.94.07.9.22.88.35.8.5.72.6.6.72.5.8.37.88.23.9v9.4m0 9.38v18.77m.02 9.4v18.76m0 9.4l.02 18.76m0 9.38v18.77m0 9.4l.02 18.76m0 9.38v9.4l-.07.94-.22.9-.35.88-.5.8-.6.72-.72.6-.8.5-.88.37-.9.23h-10m-10 0h-19.98m-10 0H1585m-10 0h-19.98m-10 0h-19.98m-10 0h-19.98m-10 0h-19.97m-10 0h-20m-9.98 0h-19.98m-10 0h-19.98m-10 0h-19.98m-10 0h-19.97m-10 .02h-19.97m-10 0h-19.98m-10 0h-19.97m-10 0h-19.98m-10 0h-19.98m-10 0h-19.97m-10 0h-19.98m-10 0h-19.98m-10 0h-19.98m-10 0h-19.98m-10 0h-19.97m-10 0H955.5m-10 0l-20 .02m-9.98 0h-19.98m-10 0h-19.98m-10 0H835.6m-10 0h-19.97m-10 0h-19.97m-10 0h-19.98m-10 0H715.7m-10 0H685.7m-10 0h-19.98m-10 0h-19.97m-10 0h-19.98m-10 0l-19.97.02m-10 0h-19.98m-10 0h-19.98m-10 0h-19.97m-10 0H445.9m-10 0h-20m-9.98 0h-19.98m-10 0h-19.98m-10 0H326m-10 0H306l-.94-.07-.9-.22-.88-.35-.8-.5-.72-.6-.6-.72-.5-.8-.37-.88-.23-.9v-9.4m0-9.38V817.4m-.02-9.4v-18.76m0-9.4l-.02-18.76m0-9.38v-18.77m0-9.4l-.02-18.76m0-9.38V686l.07-.94.22-.9.35-.88.5-.8.6-.72.72-.6.8-.5.88-.37.9-.23h10" stroke="#3a414a" stroke-width="2" fill="none"/><use xlink:href="#a" transform="matrix(1,0,0,1,308,680) translate(0 19.444444444444443)"/><use xlink:href="#b" transform="matrix(1,0,0,1,312,718) translate(0 19.444444444444443)"/><use xlink:href="#c" transform="matrix(1,0,0,1,312,718) translate(78.9506172839506 19.444444444444443)"/><use xlink:href="#d" transform="matrix(1,0,0,1,312,718) translate(164.01234567901236 19.444444444444443)"/><use xlink:href="#e" transform="matrix(1,0,0,1,312,718) translate(196.11111111111111 19.444444444444443)"/><path d="M1078.67 186a6 6 0 0 1 6-6h28a6 6 0 0 1 6 6v268a6 6 0 0 1-6 6h-28a6 6 0 0 1-6-6zM1480 426a6 6 0 0 1 6-6h28a6 6 0 0 1 6 6v688a6 6 0 0 1-6 6h-28a6 6 0 0 1-6-6zM677.33 186a6 6 0 0 1 6-6h28a6 6 0 0 1 6 6v908a6 6 0 0 1-6 6h-28a6 6 0 0 1-6-6z" stroke="#3a414a" stroke-width="2" fill="#fff"/><path d="M540 286a6 6 0 0 1 6-6h88a6 6 0 0 1 6 6v8a14.5 14.5 0 0 1-4.24 10.24l-1.52 1.52A14.5 14.5 0 0 1 624 310h-78a6 6 0 0 1-6-6z" fill="#fff"/><path d="M640 280v20l-10 10h-90" stroke="#3a414a" fill="none"/><path d="M540 286a6 6 0 0 1 6-6h588a6 6 0 0 1 6 6v128a6 6 0 0 1-6 6H546a6 6 0 0 1-6-6z" stroke="#3a414a" fill="none"/><use xlink:href="#a" transform="matrix(1,0,0,1,548,280) translate(0 19.444444444444443)"/><use xlink:href="#f" transform="matrix(1,0,0,1,552,318) translate(0 19.444444444444443)"/><use xlink:href="#g" transform="matrix(1,0,0,1,552,318) translate(73.9506172839506 19.444444444444443)"/><path d="M459.75 39.75c0 10.9-8.84 19.75-19.75 19.75-10.9 0-19.75-8.84-19.75-19.75C420.25 28.85 429.1 20 440 20c10.9 0 19.75 8.84 19.75 19.75z" stroke="#3a414a" fill="#fff"/><path d="M440 59.5v49.3a20.7 20.7 0 0 0 3.2 11.07L480 178m-40-63.2L400 178m0-98.75h80" stroke="#3a414a" fill="none"/><path d="M400 26a6 6 0 0 1 6-6h68a6 6 0 0 1 6 6v168a6 6 0 0 1-6 6h-68a6 6 0 0 1-6-6z" fill="none"/><use xlink:href="#h" transform="matrix(1,0,0,1,320,178) translate(94.10493827160494 17.77777777777778)"/><path d="M617.33 34.67a6 6 0 0 1 6-6h148a6 6 0 0 1 6 6v108a6 6 0 0 1-6 6h-148a6 6 0 0 1-6-6z" stroke="#3a414a" fill="#fff"/><use xlink:href="#i" transform="matrix(1,0,0,1,617.3333333333334,28.666666666666657) translate(46.529999999999994 63.15)"/><path d="M1018.67 34.67a6 6 0 0 1 6-6h148a6 6 0 0 1 6 6v108a6 6 0 0 1-6 6h-148a6 6 0 0 1-6-6z" stroke="#3a414a" fill="#fff"/><use xlink:href="#j" transform="matrix(1,0,0,1,1018.6666666666667,28.666666666666657) translate(23.629999999999995 63.15)"/><use xlink:href="#k" transform="matrix(1,0,0,1,1018.6666666666667,28.666666666666657) translate(70.47999999999999 63.15)"/><path d="M1420 34.67a6 6 0 0 1 6-6h148a6 6 0 0 1 6 6v108a6 6 0 0 1-6 6h-148a6 6 0 0 1-6-6z" stroke="#3a414a" fill="#fff"/><use xlink:href="#l" transform="matrix(1,0,0,1,1420,28.666666666666657) translate(12.054999999999987 63.15)"/><use xlink:href="#m" transform="matrix(1,0,0,1,1420,28.666666666666657) translate(88.005 63.15)"/><path d="M697.33 150.13v20.96m0 20.96v41.92m0 20.96v41.93m0 20.96v41.93m0 20.96v41.92m0 20.97v41.93m0 20.96v41.92m0 20.96v41.93m0 20.97v20.96l.02.2.05.2.08.2.1.2.14.14.16.14.18.12.2.08.2.05h.2l.22.03.2.05.2.08.17.12.16.14.15.15.1.2.08.2.05.2v20.96m0 20.97v41.94m0 20.98v41.94m0 20.96v41.94m0 20.97v41.95m0 20.97v41.93m.02 20.97v41.94m0 20.97v41.96m0 20.97V1159" stroke="#3a414a" stroke-width="2" fill="none"/><path d="M698.33 150.16h-2v-1.03h2z" stroke="#3a414a" stroke-width=".05" fill="#3a414a"/><path d="M700 1158.97v1.03" stroke="#3a414a" stroke-width="2" fill="none"/><path d="M1099.67 1199h-2v-10h2zm0-19.98h-2v-19.98h2zm0-29.97h-2v-19.97h2zm0-29.96h-2v-20h2zm0-29.98h-2v-19.98h2zm0-29.97h-2v-19.98h2zm0-29.97h-2v-19.98h2zm0-29.96h-2v-19.98h2zm0-29.97h-2v-19.98h2zm0-29.97h-2V919.3h2zm0-29.97h-2v-19.97h2zm0-29.96h-2v-19.97h2zm0-29.96h-2V829.4h2zm0-29.97h-2v-8.73h2zm0-30.07h-2v-19.87h2zm0-29.86h-2V739.5h2zm0-29.96h-2v-19.97h2zm0-29.96h-2v-19.98h2zm0-29.97h-2V649.6h2zm0-29.97h-2v-19.98h2zm0-29.97h-2v-19.97h2zm0-29.96h-2V559.7h2zm0-29.97h-2v-19.98h2zm0-29.97h-2v-19.98h2zm0-29.97h-2V469.8h2zm0-29.96h-2v-19.98h2zm0-29.97h-2v-19.98h2zm0-29.97h-2v-19.98h2zm0-29.97h-2v-20h2zm0-29.97h-2v-19.98h2zm0-29.97h-2v-19.98h2zm0-29.97h-2v-20h2zm0-29.98h-2v-19.98h2zm0-29.97h-2v-19.97h2zm0-29.96h-2v-20h2zm0-29.98h-2v-10h2z" stroke="#3a414a" stroke-width=".05" fill="#3a414a"/><path d="M1099.67 150.16h-2v-1.03h2z" fill="#3a414a"/><path d="M1099.7 150.18h-2.06v-1.07h2.05zm-2-1.02v.97h1.94v-.98zM1099.67 1200h-2v-1.03h2z" stroke="#3a414a" stroke-width=".05" fill="#3a414a"/><path d="M1500 150.13v9.9m0 9.88v19.8m0 9.88v19.8m0 9.88v19.78m0 9.9v19.77m0 9.9v19.78m0 9.9v19.78m0 9.9v19.77m0 9.9v19.77m0 9.9v19.77m0 9.9v19.78m0 9.9v19.77m0 9.9v19.77m0 9.88v19.8m0 9.88v19.78m0 9.9v19.77m0 9.9v19.78m0 9.9v19.78m0 9.9v19.77m0 9.9v19.77m0 9.9v19.77m0 9.9v19.78m0 9.9v19.77m0 9.9v19.77m0 9.88v19.78m0 9.9v19.78m0 9.9v19.77m0 9.9v19.78m0 9.9v19.77m0 9.9v19.78m0 9.9v19.77m0 9.9v19.77m0 9.9v19.78m0 9.9v19.77m0 9.9v9.88" stroke="#3a414a" stroke-width="2" fill="none"/><path d="M1501 150.16h-2v-1.03h2z" stroke="#3a414a" stroke-width=".05" fill="#3a414a"/><path d="M1500 1158.97v1.03" stroke="#3a414a" stroke-width="2" fill="none"/><path d="M500.8 260.5h-60.3v-1h60.3zm180.15 0H539.2v-1h141.75zM440.5 260.5h-.5v-1h.5z" stroke="#3a414a" stroke-width=".05" fill="#3a414a"/><path d="M695.72 260l-14.27 4.64v-9.28z" fill="#3a414a"/><path d="M697.33 260l-16.38 5.32v-10.64zm-15.38 3.95L694.1 260l-12.15-3.95z" stroke="#3a414a" stroke-width=".05" fill="#3a414a"/><use xlink:href="#n" transform="matrix(1,0,0,1,500.7901234567901,249.3333333333334) translate(0 14.222222222222223)"/><path d="M440 221v9.98m0 9.98v19.96m0 9.98v19.95m0 9.98v19.96m0 9.97v19.96m0 9.98v19.97m0 9.98v19.95m0 9.98v19.96m0 9.98v19.96m0 9.98v19.96m0 9.98v19.95m0 9.98v19.96m0 9.97v19.96m0 9.98v19.97m0 9.98v19.95m0 9.98v19.96m0 9.98v19.96m0 9.98v19.96m0 9.98v19.95m0 9.98v19.96m0 9.97v19.96m0 9.98v19.97m0 9.98v19.95m0 9.98v19.96m0 9.98v19.96m0 9.98v19.96m0 9.98v19.95m0 9.98v19.96m0 9.97v19.96m0 9.98v19.97m0 9.98v19.95m0 9.98v19.96m0 9.98v9.98M440 221.03V220M440 1178.97v1.03" stroke="#3a414a" stroke-width="2" fill="none"/><path d="M1082.28 338.08v1l-96.75-.04v-1zm-187.78-10.3l.3.13h-19.64v.6H697.83v-1h194.9l.9.07z" stroke="#3a414a" stroke-width=".05" fill="#3a414a"/><path d="M697.85 328.5h-.52v-1h.52z" stroke="#3a414a" stroke-width=".05" fill="#3a414a"/><path d="M1097.05 338.58l-14.27 4.63v-9.26z" fill="#3a414a"/><path d="M1098.67 338.58l-16.4 5.32v-10.65zm-15.4 3.94l12.16-3.94-12.15-3.95z" stroke="#3a414a" stroke-width=".05" fill="#3a414a"/><use xlink:href="#o" transform="matrix(1,0,0,1,875.1596581578187,327.9095026050608) translate(0 14.222222222222223)"/><use xlink:href="#p" transform="matrix(1,0,0,1,875.1596581578187,327.9095026050608) translate(67.01234567901236 14.222222222222223)"/><path d="M1097.67 385.6v2h-10.82v-2zm-21.63-.02v2h-21.62v-2zm-32.43 0v2l-21.6-.02v-2zm-32.42-.02v2h-21.63v-2zM893.1 372.42l1.06.25 1.02.42.94.57.83.7.72.85.43.7h-2.46l-.1-.12-.6-.5-.67-.42-.73-.3-.76-.18-.82-.07h-9.75v-2h9.84zm-167.48 1.9h-9.78v-2h9.78zm29.36 0H735.4v-2H755zm29.36 0h-19.57v-2h19.57zm29.36 0h-19.57v-2h19.57zm29.37 0H823.5v-2h19.57zm29.36 0h-19.58v-2h19.58z" stroke="#3a414a" stroke-width=".05" fill="#3a414a"/><path d="M714.84 377.97l-14.27-4.64 14.27-4.63z" fill="#3a414a"/><path d="M715.84 379.35l-18.5-6.02 18.5-6zm-12.03-6.02l10.04 3.26v-6.53zM1098.67 387.6h-1.03v-2h1.03z" stroke="#3a414a" stroke-width=".05" fill="#3a414a"/><use xlink:href="#q" transform="matrix(1,0,0,1,868.5548220698731,375.92328989155476) translate(0 14.222222222222223)"/><use xlink:href="#p" transform="matrix(1,0,0,1,868.5548220698731,375.92328989155476) translate(67.01234567901236 14.222222222222223)"/><path d="M799.26 475.17H697.83v-1h101.43zm684.36 0H950.07v-1h533.55z" stroke="#3a414a" stroke-width=".05" fill="#3a414a"/><path d="M697.85 475.17h-.52v-1h.52z" stroke="#3a414a" stroke-width=".05" fill="#3a414a"/><path d="M1498.38 474.67l-14.26 4.63v-9.27z" fill="#3a414a"/><path d="M1500 474.67l-16.38 5.32v-10.66zm-15.38 3.94l12.14-3.93-12.14-3.95z" stroke="#3a414a" stroke-width=".05" fill="#3a414a"/><use xlink:href="#r" transform="matrix(1,0,0,1,799.2592592592592,464.0000000000001) translate(0 14.222222222222223)"/><path d="M725.65 534.33h-9.8v-2h9.8zm29.45 0h-19.63v-2h19.63zm29.45 0h-19.63v-2h19.63zm29.45 0h-19.64v-2H814zm29.45 0H823.8v-2h19.65zm29.44 0h-19.64v-2h19.63zm29.44 0H882.7v-2h19.64zm29.45 0h-19.64v-2h19.63zm147.23 0h-19.63v-2h19.63zm29.9 0h-20.08v-2h20.08zm30.8 0h-20.53v-2h20.53zm30.8 0h-20.54v-2h20.52zm30.8 0h-20.54v-2h20.52zm30.78 0h-20.52v-2h20.53zm30.8 0h-20.52v-2h20.53zm30.8 0h-20.53v-2h20.53zm30.8 0h-20.53v-2h20.53zm30.8 0h-20.54v-2h20.53zm30.78 0h-20.53v-2h20.53zm30.8 0h-20.53v-2h20.53zm30.8 0h-20.54v-2h20.53zm30.8 0h-20.54v-2h20.53zm20.52 0h-10.27v-2H1499zm-449.4 0h-5.06v-2h5.05z" stroke="#3a414a" stroke-width=".05" fill="#3a414a"/><path d="M714.84 537.97l-14.27-4.64 14.27-4.63z" fill="#3a414a"/><path d="M715.84 539.35l-18.5-6.02 18.5-6zm-12.03-6.02l10.04 3.26v-6.53zM1500 534.33h-1.03v-2h1.03z" stroke="#3a414a" stroke-width=".05" fill="#3a414a"/><use xlink:href="#s" transform="matrix(1,0,0,1,934.1234567901236,522.666666666667) translate(0 14.222222222222223)"/><use xlink:href="#t" transform="matrix(1,0,0,1,934.1234567901236,522.666666666667) translate(53.23456790123458 14.222222222222223)"/><path d="M468.4 581h-9.9v-2h9.9zm29.74 0h-19.82v-2h19.82zm29.73 0h-19.82v-2h19.82zm148.64 0h-19.8v-2h19.8zm19.83 0h-9.9v-2h9.9zm-49.54 0h-2.83v-2h2.82z" stroke="#3a414a" stroke-width=".05" fill="#3a414a"/><path d="M457.5 584.64L443.24 580l14.26-4.64z" fill="#3a414a"/><path d="M458.5 586l-18.5-6 18.5-6zm-12.03-6l10.03 3.26v-6.52zM697.33 581h-1.02v-2h1.03z" stroke="#3a414a" stroke-width=".05" fill="#3a414a"/><use xlink:href="#s" transform="matrix(1,0,0,1,533.5475985398466,569.3333333333334) translate(0 14.222222222222223)"/><use xlink:href="#t" transform="matrix(1,0,0,1,533.5475985398466,569.3333333333334) translate(53.23456790123458 14.222222222222223)"/><path d="M848.8 720.5H440.5v-1h408.3zm634.82 0h-524.4v-1h524.4zM440.5 720.5h-.5v-1h.5z" stroke="#3a414a" stroke-width=".05" fill="#3a414a"/><path d="M1498.38 720l-14.26 4.63v-9.27z" fill="#3a414a"/><path d="M1500 720l-16.38 5.32v-10.64zm-15.38 3.95l12.14-3.95-12.14-3.95z" stroke="#3a414a" stroke-width=".05" fill="#3a414a"/><use xlink:href="#u" transform="matrix(1,0,0,1,848.79012345679,709.3323902679809) translate(0 14.222222222222223)"/><use xlink:href="#v" transform="matrix(1,0,0,1,848.79012345679,709.3323902679809) translate(62.12345679012346 14.222222222222223)"/><path d="M728.28 801h-9.78v-2h9.78zm29.35 0h-19.56v-2h19.56zm29.35 0H767.4v-2H787zm29.34 0h-19.56v-2h19.56zm29.35 0H826.1v-2h19.57zm29.34 0h-19.55v-2H875zm29.36 0H884.8v-2h19.56zm29.35 0h-19.56v-2h19.57zm29.35 0H943.5v-2h19.55zm29.35 0h-19.57v-2h19.57zm29.34 0h-19.56v-2h19.56zm29.35 0h-19.57v-2h19.56zm29.34 0h-19.57v-2h19.57zm183.25 0h-20.47v-2h20.46zm30.68 0h-20.46v-2h20.46zm30.7 0h-20.47v-2h20.48zm30.7 0h-20.47v-2h20.47zm30.68 0H1366v-2h20.46zm30.7 0h-20.47v-2h20.45zm30.7 0h-20.48v-2h20.47zm30.68 0h-20.46v-2h20.46zm20.46 0h-10.23v-2H1499z" stroke="#3a414a" stroke-width=".05" fill="#3a414a"/><path d="M717.5 804.64L703.24 800l14.26-4.64z" fill="#3a414a"/><path d="M718.5 806l-18.5-6 18.5-6zm-12.03-6l10.03 3.26v-6.52zM1500 801h-1.03v-2h1.03z" stroke="#3a414a" stroke-width=".05" fill="#3a414a"/><g><use xlink:href="#u" transform="matrix(1,0,0,1,1089.0006816373407,789.3333333333334) translate(0 14.222222222222223)"/><use xlink:href="#w" transform="matrix(1,0,0,1,1089.0006816373407,789.3333333333334) translate(62.12345679012346 14.222222222222223)"/></g><path d="M840.05 961H458.5v-2h381.55zm658.95 0H983.95v-2H1499z" stroke="#3a414a" stroke-width=".05" fill="#3a414a"/><path d="M457.5 964.63L443.24 960l14.26-4.64z" fill="#3a414a"/><path d="M458.5 966l-18.5-6 18.5-6zm-12.03-6l10.03 3.26v-6.52zM1500 961h-1.03v-2h1.03z" stroke="#3a414a" stroke-width=".05" fill="#3a414a"/><g><use xlink:href="#x" transform="matrix(1,0,0,1,840.0493827160494,949.3323902679812) translate(0 14.222222222222223)"/><use xlink:href="#y" transform="matrix(1,0,0,1,840.0493827160494,949.3323902679812) translate(81.82716049382717 14.222222222222223)"/></g><defs><path fill="#3a414a" d="M30 0v-248h33v221h125V0H30" id="z"/><path fill="#3a414a" d="M100-194c62-1 85 37 85 99 1 63-27 99-86 99S16-35 15-95c0-66 28-99 85-99zM99-20c44 1 53-31 53-75 0-43-8-75-51-75s-53 32-53 75 10 74 51 75" id="A"/><path fill="#3a414a" d="M115-194c55 1 70 41 70 98S169 2 115 4C84 4 66-9 55-30l1 105H24l-1-265h31l2 30c10-21 28-34 59-34zm-8 174c40 0 45-34 45-75s-6-73-45-74c-42 0-51 32-51 76 0 43 10 73 51 73" id="B"/><g id="a"><use transform="matrix(0.06172839506172839,0,0,0.06172839506172839,0,0)" xlink:href="#z"/><use transform="matrix(0.06172839506172839,0,0,0.06172839506172839,12.345679012345679,0)" xlink:href="#A"/><use transform="matrix(0.06172839506172839,0,0,0.06172839506172839,24.691358024691358,0)" xlink:href="#A"/><use transform="matrix(0.06172839506172839,0,0,0.06172839506172839,37.03703703703704,0)" xlink:href="#B"/></g><path fill="#3a414a" d="M26 75v-336h71v23H56V52h41v23H26" id="C"/><path fill="#3a414a" d="M210-169c-67 3-38 105-44 169h-31v-121c0-29-5-50-35-48C34-165 62-65 56 0H25l-1-190h30c1 10-1 24 2 32 10-44 99-50 107 0 11-21 27-35 58-36 85-2 47 119 55 194h-31v-121c0-29-5-49-35-48" id="D"/><path fill="#3a414a" d="M117-194c89-4 53 116 60 194h-32v-121c0-31-8-49-39-48C34-167 62-67 57 0H25l-1-190h30c1 10-1 24 2 32 11-22 29-35 61-36" id="E"/><path fill="#3a414a" d="M100-194c63 0 86 42 84 106H49c0 40 14 67 53 68 26 1 43-12 49-29l28 8c-11 28-37 45-77 45C44 4 14-33 15-96c1-61 26-98 85-98zm52 81c6-60-76-77-97-28-3 7-6 17-6 28h103" id="F"/><path fill="#3a414a" d="M179-190L93 31C79 59 56 82 12 73V49c39 6 53-20 64-50L1-190h34L92-34l54-156h33" id="G"/><g id="b"><use transform="matrix(0.06172839506172839,0,0,0.06172839506172839,0,0)" xlink:href="#C"/><use transform="matrix(0.06172839506172839,0,0,0.06172839506172839,6.172839506172839,0)" xlink:href="#D"/><use transform="matrix(0.06172839506172839,0,0,0.06172839506172839,24.629629629629626,0)" xlink:href="#A"/><use transform="matrix(0.06172839506172839,0,0,0.06172839506172839,36.9753086419753,0)" xlink:href="#E"/><use transform="matrix(0.06172839506172839,0,0,0.06172839506172839,49.32098765432098,0)" xlink:href="#F"/><use transform="matrix(0.06172839506172839,0,0,0.06172839506172839,61.66666666666666,0)" xlink:href="#G"/></g><path fill="#3a414a" d="M24-231v-30h32v30H24zM24 0v-190h32V0H24" id="H"/><path fill="#3a414a" d="M135-143c-3-34-86-38-87 0 15 53 115 12 119 90S17 21 10-45l28-5c4 36 97 45 98 0-10-56-113-15-118-90-4-57 82-63 122-42 12 7 21 19 24 35" id="I"/><path fill="#3a414a" d="M114-163C36-179 61-72 57 0H25l-1-190h30c1 12-1 29 2 39 6-27 23-49 58-41v29" id="J"/><path fill="#3a414a" d="M59-47c-2 24 18 29 38 22v24C64 9 27 4 27-40v-127H5v-23h24l9-43h21v43h35v23H59v120" id="K"/><path fill="#3a414a" d="M85-194c31 0 48 13 60 33l-1-100h32l1 261h-30c-2-10 0-23-3-31C134-8 116 4 85 4 32 4 16-35 15-94c0-66 23-100 70-100zm9 24c-40 0-46 34-46 75 0 40 6 74 45 74 42 0 51-32 51-76 0-42-9-74-50-73" id="L"/><g id="c"><use transform="matrix(0.06172839506172839,0,0,0.06172839506172839,0,0)" xlink:href="#H"/><use transform="matrix(0.06172839506172839,0,0,0.06172839506172839,4.876543209876543,0)" xlink:href="#E"/><use transform="matrix(0.06172839506172839,0,0,0.06172839506172839,17.22222222222222,0)" xlink:href="#I"/><use transform="matrix(0.06172839506172839,0,0,0.06172839506172839,28.333333333333332,0)" xlink:href="#F"/><use transform="matrix(0.06172839506172839,0,0,0.06172839506172839,40.67901234567901,0)" xlink:href="#J"/><use transform="matrix(0.06172839506172839,0,0,0.06172839506172839,48.02469135802469,0)" xlink:href="#K"/><use transform="matrix(0.06172839506172839,0,0,0.06172839506172839,54.19753086419753,0)" xlink:href="#F"/><use transform="matrix(0.06172839506172839,0,0,0.06172839506172839,66.54320987654322,0)" xlink:href="#L"/></g><path fill="#3a414a" d="M18-100v-36l175-74v27L42-118l151 64v27" id="M"/><path fill="#3a414a" d="M18-150v-26h174v26H18zm0 90v-26h174v26H18" id="N"/><g id="d"><use transform="matrix(0.06172839506172839,0,0,0.06172839506172839,0,0)" xlink:href="#M"/><use transform="matrix(0.06172839506172839,0,0,0.06172839506172839,12.962962962962962,0)" xlink:href="#N"/></g><path fill="#3a414a" d="M143 0L79-87 56-68V0H24v-261h32v163l83-92h37l-77 82L181 0h-38" id="O"/><path fill="#3a414a" d="M108 0H70L1-190h34L89-25l56-165h34" id="P"/><path fill="#3a414a" d="M141-36C126-15 110 5 73 4 37 3 15-17 15-53c-1-64 63-63 125-63 3-35-9-54-41-54-24 1-41 7-42 31l-33-3c5-37 33-52 76-52 45 0 72 20 72 64v82c-1 20 7 32 28 27v20c-31 9-61-2-59-35zM48-53c0 20 12 33 32 33 41-3 63-29 60-74-43 2-92-5-92 41" id="Q"/><path fill="#3a414a" d="M24 0v-261h32V0H24" id="R"/><path fill="#3a414a" d="M84 4C-5 8 30-112 23-190h32v120c0 31 7 50 39 49 72-2 45-101 50-169h31l1 190h-30c-1-10 1-25-2-33-11 22-28 36-60 37" id="S"/><path fill="#3a414a" d="M3 75V52h41v-290H3v-23h71V75H3" id="T"/><g id="e"><use transform="matrix(0.06172839506172839,0,0,0.06172839506172839,0,0)" xlink:href="#L"/><use transform="matrix(0.06172839506172839,0,0,0.06172839506172839,12.345679012345679,0)" xlink:href="#J"/><use transform="matrix(0.06172839506172839,0,0,0.06172839506172839,19.691358024691358,0)" xlink:href="#H"/><use transform="matrix(0.06172839506172839,0,0,0.06172839506172839,24.5679012345679,0)" xlink:href="#E"/><use transform="matrix(0.06172839506172839,0,0,0.06172839506172839,36.913580246913575,0)" xlink:href="#O"/><use transform="matrix(0.06172839506172839,0,0,0.06172839506172839,48.02469135802468,0)" xlink:href="#P"/><use transform="matrix(0.06172839506172839,0,0,0.06172839506172839,59.1358024691358,0)" xlink:href="#Q"/><use transform="matrix(0.06172839506172839,0,0,0.06172839506172839,71.48148148148148,0)" xlink:href="#R"/><use transform="matrix(0.06172839506172839,0,0,0.06172839506172839,76.35802469135803,0)" xlink:href="#S"/><use transform="matrix(0.06172839506172839,0,0,0.06172839506172839,88.70370370370371,0)" xlink:href="#F"/><use transform="matrix(0.06172839506172839,0,0,0.06172839506172839,101.0493827160494,0)" xlink:href="#T"/></g><path fill="#3a414a" d="M96-169c-40 0-48 33-48 73s9 75 48 75c24 0 41-14 43-38l32 2c-6 37-31 61-74 61-59 0-76-41-82-99-10-93 101-131 147-64 4 7 5 14 7 22l-32 3c-4-21-16-35-41-35" id="U"/><g id="f"><use transform="matrix(0.06172839506172839,0,0,0.06172839506172839,0,0)" xlink:href="#U"/><use transform="matrix(0.06172839506172839,0,0,0.06172839506172839,11.11111111111111,0)" xlink:href="#A"/><use transform="matrix(0.06172839506172839,0,0,0.06172839506172839,23.45679012345679,0)" xlink:href="#J"/><use transform="matrix(0.06172839506172839,0,0,0.06172839506172839,30.80246913580247,0)" xlink:href="#J"/><use transform="matrix(0.06172839506172839,0,0,0.06172839506172839,38.148148148148145,0)" xlink:href="#F"/><use transform="matrix(0.06172839506172839,0,0,0.06172839506172839,50.49382716049382,0)" xlink:href="#U"/><use transform="matrix(0.06172839506172839,0,0,0.06172839506172839,61.60493827160494,0)" xlink:href="#K"/></g><g id="g"><use transform="matrix(0.06172839506172839,0,0,0.06172839506172839,0,0)" xlink:href="#L"/><use transform="matrix(0.06172839506172839,0,0,0.06172839506172839,12.345679012345679,0)" xlink:href="#J"/><use transform="matrix(0.06172839506172839,0,0,0.06172839506172839,19.691358024691358,0)" xlink:href="#H"/><use transform="matrix(0.06172839506172839,0,0,0.06172839506172839,24.5679012345679,0)" xlink:href="#E"/><use transform="matrix(0.06172839506172839,0,0,0.06172839506172839,36.913580246913575,0)" xlink:href="#O"/></g><path fill="#3a414a" d="M205 0l-28-72H64L36 0H1l101-248h38L239 0h-34zm-38-99l-47-123c-12 45-31 82-46 123h93" id="V"/><g id="h"><use transform="matrix(0.06172839506172839,0,0,0.06172839506172839,0,0)" xlink:href="#V"/><use transform="matrix(0.06172839506172839,0,0,0.06172839506172839,14.814814814814813,0)" xlink:href="#U"/><use transform="matrix(0.06172839506172839,0,0,0.06172839506172839,25.925925925925924,0)" xlink:href="#K"/><use transform="matrix(0.06172839506172839,0,0,0.06172839506172839,32.098765432098766,0)" xlink:href="#A"/><use transform="matrix(0.06172839506172839,0,0,0.06172839506172839,44.44444444444444,0)" xlink:href="#J"/></g><path d="M205 0l-28-72H64L36 0H1l101-248h38L239 0h-34zm-38-99l-47-123c-12 45-31 82-46 123h93" id="W"/><path d="M84 4C-5 8 30-112 23-190h32v120c0 31 7 50 39 49 72-2 45-101 50-169h31l1 190h-30c-1-10 1-25-2-33-11 22-28 36-60 37" id="X"/><path d="M59-47c-2 24 18 29 38 22v24C64 9 27 4 27-40v-127H5v-23h24l9-43h21v43h35v23H59v120" id="Y"/><path d="M100-194c62-1 85 37 85 99 1 63-27 99-86 99S16-35 15-95c0-66 28-99 85-99zM99-20c44 1 53-31 53-75 0-43-8-75-51-75s-53 32-53 75 10 74 51 75" id="Z"/><path d="M210-169c-67 3-38 105-44 169h-31v-121c0-29-5-50-35-48C34-165 62-65 56 0H25l-1-190h30c1 10-1 24 2 32 10-44 99-50 107 0 11-21 27-35 58-36 85-2 47 119 55 194h-31v-121c0-29-5-49-35-48" id="aa"/><path d="M141-36C126-15 110 5 73 4 37 3 15-17 15-53c-1-64 63-63 125-63 3-35-9-54-41-54-24 1-41 7-42 31l-33-3c5-37 33-52 76-52 45 0 72 20 72 64v82c-1 20 7 32 28 27v20c-31 9-61-2-59-35zM48-53c0 20 12 33 32 33 41-3 63-29 60-74-43 2-92-5-92 41" id="ab"/><g id="i"><use transform="matrix(0.05,0,0,0.05,0,0)" xlink:href="#W"/><use transform="matrix(0.05,0,0,0.05,12,0)" xlink:href="#X"/><use transform="matrix(0.05,0,0,0.05,22,0)" xlink:href="#Y"/><use transform="matrix(0.05,0,0,0.05,27,0)" xlink:href="#Z"/><use transform="matrix(0.05,0,0,0.05,37,0)" xlink:href="#aa"/><use transform="matrix(0.05,0,0,0.05,51.95,0)" xlink:href="#ab"/><use transform="matrix(0.05,0,0,0.05,61.95,0)" xlink:href="#Y"/><path d="M-.9 1.25h68.75v1.32H-.9z"/></g><path d="M30-248c118-7 216 8 213 122C240-48 200 0 122 0H30v-248zM63-27c89 8 146-16 146-99s-60-101-146-95v194" id="ac"/><path d="M114-163C36-179 61-72 57 0H25l-1-190h30c1 12-1 29 2 39 6-27 23-49 58-41v29" id="ad"/><path d="M24-231v-30h32v30H24zM24 0v-190h32V0H24" id="ae"/><path d="M117-194c89-4 53 116 60 194h-32v-121c0-31-8-49-39-48C34-167 62-67 57 0H25l-1-190h30c1 10-1 24 2 32 11-22 29-35 61-36" id="af"/><path d="M143 0L79-87 56-68V0H24v-261h32v163l83-92h37l-77 82L181 0h-38" id="ag"/><g id="j"><use transform="matrix(0.05,0,0,0.05,0,0)" xlink:href="#ac"/><use transform="matrix(0.05,0,0,0.05,12.950000000000001,0)" xlink:href="#ad"/><use transform="matrix(0.05,0,0,0.05,18.900000000000002,0)" xlink:href="#ae"/><use transform="matrix(0.05,0,0,0.05,22.85,0)" xlink:href="#af"/><use transform="matrix(0.05,0,0,0.05,32.85,0)" xlink:href="#ag"/><path d="M-.9 1.25h48.65v1.32H-.9z"/></g><path d="M185-189c-5-48-123-54-124 2 14 75 158 14 163 119 3 78-121 87-175 55-17-10-28-26-33-46l33-7c5 56 141 63 141-1 0-78-155-14-162-118-5-82 145-84 179-34 5 7 8 16 11 25" id="ah"/><path d="M100-194c63 0 86 42 84 106H49c0 40 14 67 53 68 26 1 43-12 49-29l28 8c-11 28-37 45-77 45C44 4 14-33 15-96c1-61 26-98 85-98zm52 81c6-60-76-77-97-28-3 7-6 17-6 28h103" id="ai"/><path d="M24 0v-261h32V0H24" id="aj"/><path d="M96-169c-40 0-48 33-48 73s9 75 48 75c24 0 41-14 43-38l32 2c-6 37-31 61-74 61-59 0-76-41-82-99-10-93 101-131 147-64 4 7 5 14 7 22l-32 3c-4-21-16-35-41-35" id="ak"/><g id="k"><use transform="matrix(0.05,0,0,0.05,0,0)" xlink:href="#ah"/><use transform="matrix(0.05,0,0,0.05,12,0)" xlink:href="#ai"/><use transform="matrix(0.05,0,0,0.05,22,0)" xlink:href="#aj"/><use transform="matrix(0.05,0,0,0.05,25.950000000000003,0)" xlink:href="#ai"/><use transform="matrix(0.05,0,0,0.05,35.95,0)" xlink:href="#ak"/><use transform="matrix(0.05,0,0,0.05,44.95,0)" xlink:href="#Y"/><use transform="matrix(0.05,0,0,0.05,49.95,0)" xlink:href="#Z"/><use transform="matrix(0.05,0,0,0.05,59.95,0)" xlink:href="#ad"/><path d="M-.9 1.25h67.7v1.32H-.9z"/></g><path d="M30-248c87 1 191-15 191 75 0 78-77 80-158 76V0H30v-248zm33 125c57 0 124 11 124-50 0-59-68-47-124-48v98" id="al"/><path d="M179-190L93 31C79 59 56 82 12 73V49c39 6 53-20 64-50L1-190h34L92-34l54-156h33" id="am"/><g id="l"><use transform="matrix(0.05,0,0,0.05,0,0)" xlink:href="#al"/><use transform="matrix(0.05,0,0,0.05,12,0)" xlink:href="#ab"/><use transform="matrix(0.05,0,0,0.05,22,0)" xlink:href="#am"/><use transform="matrix(0.05,0,0,0.05,31,0)" xlink:href="#aa"/><use transform="matrix(0.05,0,0,0.05,45.95,0)" xlink:href="#ai"/><use transform="matrix(0.05,0,0,0.05,55.95,0)" xlink:href="#af"/><use transform="matrix(0.05,0,0,0.05,65.95,0)" xlink:href="#Y"/><path d="M-.9 1.25h77.75v1.32H-.9z"/></g><path d="M135-143c-3-34-86-38-87 0 15 53 115 12 119 90S17 21 10-45l28-5c4 36 97 45 98 0-10-56-113-15-118-90-4-57 82-63 122-42 12 7 21 19 24 35" id="an"/><g id="m"><use transform="matrix(0.05,0,0,0.05,0,0)" xlink:href="#ah"/><use transform="matrix(0.05,0,0,0.05,12,0)" xlink:href="#am"/><use transform="matrix(0.05,0,0,0.05,21,0)" xlink:href="#an"/><use transform="matrix(0.05,0,0,0.05,30,0)" xlink:href="#Y"/><use transform="matrix(0.05,0,0,0.05,35,0)" xlink:href="#ai"/><use transform="matrix(0.05,0,0,0.05,45,0)" xlink:href="#aa"/><path d="M-.9 1.25h61.75v1.32H-.9z"/></g><path fill="#333" d="M137-138c1-29-70-34-71-4 15 46 118 7 119 86 1 83-164 76-172 9l43-7c4 19 20 25 44 25 33 8 57-30 24-41C81-84 22-81 20-136c-2-80 154-74 161-7" id="ao"/><path fill="#333" d="M115-3C79 11 28 4 28-45v-112H4v-33h27l15-45h31v45h36v33H77v99c-1 23 16 31 38 25v30" id="ap"/><path fill="#333" d="M133-34C117-15 103 5 69 4 32 3 11-16 11-54c-1-60 55-63 116-61 1-26-3-47-28-47-18 1-26 9-28 27l-52-2c7-38 36-58 82-57s74 22 75 68l1 82c-1 14 12 18 25 15v27c-30 8-71 5-69-32zm-48 3c29 0 43-24 42-57-32 0-66-3-65 30 0 17 8 27 23 27" id="aq"/><path fill="#333" d="M135-150c-39-12-60 13-60 57V0H25l-1-190h47c2 13-1 29 3 40 6-28 27-53 61-41v41" id="ar"/><g id="n"><use transform="matrix(0.04938271604938272,0,0,0.04938271604938272,0,0)" xlink:href="#ao"/><use transform="matrix(0.04938271604938272,0,0,0.04938271604938272,9.876543209876544,0)" xlink:href="#ap"/><use transform="matrix(0.04938271604938272,0,0,0.04938271604938272,15.753086419753087,0)" xlink:href="#aq"/><use transform="matrix(0.04938271604938272,0,0,0.04938271604938272,25.629629629629633,0)" xlink:href="#ar"/><use transform="matrix(0.04938271604938272,0,0,0.04938271604938272,32.543209876543216,0)" xlink:href="#ap"/></g><path fill="#333" d="M190-63c-7 42-38 67-86 67-59 0-84-38-90-98-12-110 154-137 174-36l-49 2c-2-19-15-32-35-32-30 0-35 28-38 64-6 74 65 87 74 30" id="as"/><path fill="#333" d="M114-157C55-157 80-60 75 0H25v-261h50l-1 109c12-26 28-41 61-42 86-1 58 113 63 194h-50c-7-57 23-157-34-157" id="at"/><path fill="#333" d="M110-194c64 0 96 36 96 99 0 64-35 99-97 99-61 0-95-36-95-99 0-62 34-99 96-99zm-1 164c35 0 45-28 45-65 0-40-10-65-43-65-34 0-45 26-45 65 0 36 10 65 43 65" id="au"/><path fill="#333" d="M185-48c-13 30-37 53-82 52C43 2 14-33 14-96s30-98 90-98c62 0 83 45 84 108H66c0 31 8 55 39 56 18 0 30-7 34-22zm-45-69c5-46-57-63-70-21-2 6-4 13-4 21h74" id="av"/><g id="o"><use transform="matrix(0.04938271604938272,0,0,0.04938271604938272,0,0)" xlink:href="#as"/><use transform="matrix(0.04938271604938272,0,0,0.04938271604938272,9.876543209876544,0)" xlink:href="#at"/><use transform="matrix(0.04938271604938272,0,0,0.04938271604938272,20.69135802469136,0)" xlink:href="#au"/><use transform="matrix(0.04938271604938272,0,0,0.04938271604938272,31.506172839506174,0)" xlink:href="#au"/><use transform="matrix(0.04938271604938272,0,0,0.04938271604938272,42.320987654320994,0)" xlink:href="#ao"/><use transform="matrix(0.04938271604938272,0,0,0.04938271604938272,52.19753086419754,0)" xlink:href="#av"/></g><path fill="#333" d="M88-194c31-1 46 15 58 34l-1-101h50l1 261h-48c-2-10 0-23-3-31C134-8 116 4 84 4 32 4 16-41 15-95c0-56 19-97 73-99zm17 164c33 0 40-30 41-66 1-37-9-64-41-64s-38 30-39 65c0 43 13 65 39 65" id="aw"/><path fill="#333" d="M25-224v-37h50v37H25zM25 0v-190h50V0H25" id="ax"/><path fill="#333" d="M135-194c87-1 58 113 63 194h-50c-7-57 23-157-34-157-59 0-34 97-39 157H25l-1-190h47c2 12-1 28 3 38 12-26 28-41 61-42" id="ay"/><path fill="#333" d="M147 0L96-86 75-71V0H25v-261h50v150l67-79h53l-66 74L201 0h-54" id="az"/><g id="p"><use transform="matrix(0.04938271604938272,0,0,0.04938271604938272,0,0)" xlink:href="#aw"/><use transform="matrix(0.04938271604938272,0,0,0.04938271604938272,10.814814814814815,0)" xlink:href="#ar"/><use transform="matrix(0.04938271604938272,0,0,0.04938271604938272,17.728395061728396,0)" xlink:href="#ax"/><use transform="matrix(0.04938271604938272,0,0,0.04938271604938272,22.666666666666668,0)" xlink:href="#ay"/><use transform="matrix(0.04938271604938272,0,0,0.04938271604938272,33.48148148148148,0)" xlink:href="#az"/></g><g id="q"><use transform="matrix(0.04938271604938272,0,0,0.04938271604938272,0,0)" xlink:href="#as"/><use transform="matrix(0.04938271604938272,0,0,0.04938271604938272,9.876543209876544,0)" xlink:href="#at"/><use transform="matrix(0.04938271604938272,0,0,0.04938271604938272,20.69135802469136,0)" xlink:href="#au"/><use transform="matrix(0.04938271604938272,0,0,0.04938271604938272,31.506172839506174,0)" xlink:href="#ao"/><use transform="matrix(0.04938271604938272,0,0,0.04938271604938272,41.38271604938272,0)" xlink:href="#av"/><use transform="matrix(0.04938271604938272,0,0,0.04938271604938272,51.25925925925927,0)" xlink:href="#ay"/></g><path fill="#333" d="M128 0H69L1-190h53L99-40l48-150h52" id="aA"/><path fill="#333" d="M25 0v-261h50V0H25" id="aB"/><path fill="#333" d="M85 4C-2 5 27-109 22-190h50c7 57-23 150 33 157 60-5 35-97 40-157h50l1 190h-47c-2-12 1-28-3-38-12 25-28 42-61 42" id="aC"/><g id="r"><use transform="matrix(0.04938271604938272,0,0,0.04938271604938272,0,0)" xlink:href="#as"/><use transform="matrix(0.04938271604938272,0,0,0.04938271604938272,9.876543209876544,0)" xlink:href="#at"/><use transform="matrix(0.04938271604938272,0,0,0.04938271604938272,20.69135802469136,0)" xlink:href="#au"/><use transform="matrix(0.04938271604938272,0,0,0.04938271604938272,31.506172839506174,0)" xlink:href="#ao"/><use transform="matrix(0.04938271604938272,0,0,0.04938271604938272,41.38271604938272,0)" xlink:href="#av"/><use transform="matrix(0.04938271604938272,0,0,0.04938271604938272,51.25925925925927,0)" xlink:href="#ay"/><use transform="matrix(0.04938271604938272,0,0,0.04938271604938272,62.074074074074076,0)" xlink:href="#aw"/><use transform="matrix(0.04938271604938272,0,0,0.04938271604938272,72.8888888888889,0)" xlink:href="#ar"/><use transform="matrix(0.04938271604938272,0,0,0.04938271604938272,79.80246913580248,0)" xlink:href="#ax"/><use transform="matrix(0.04938271604938272,0,0,0.04938271604938272,84.74074074074076,0)" xlink:href="#ay"/><use transform="matrix(0.04938271604938272,0,0,0.04938271604938272,95.55555555555557,0)" xlink:href="#az"/><use transform="matrix(0.04938271604938272,0,0,0.04938271604938272,105.4320987654321,0)" xlink:href="#aA"/><use transform="matrix(0.04938271604938272,0,0,0.04938271604938272,115.30864197530865,0)" xlink:href="#aq"/><use transform="matrix(0.04938271604938272,0,0,0.04938271604938272,125.18518518518519,0)" xlink:href="#aB"/><use transform="matrix(0.04938271604938272,0,0,0.04938271604938272,130.12345679012347,0)" xlink:href="#aC"/><use transform="matrix(0.04938271604938272,0,0,0.04938271604938272,140.93827160493828,0)" xlink:href="#av"/></g><g id="s"><use transform="matrix(0.04938271604938272,0,0,0.04938271604938272,0,0)" xlink:href="#ax"/><use transform="matrix(0.04938271604938272,0,0,0.04938271604938272,4.938271604938272,0)" xlink:href="#ay"/><use transform="matrix(0.04938271604938272,0,0,0.04938271604938272,15.753086419753087,0)" xlink:href="#ao"/><use transform="matrix(0.04938271604938272,0,0,0.04938271604938272,25.629629629629633,0)" xlink:href="#av"/><use transform="matrix(0.04938271604938272,0,0,0.04938271604938272,35.50617283950618,0)" xlink:href="#ar"/><use transform="matrix(0.04938271604938272,0,0,0.04938271604938272,42.41975308641976,0)" xlink:href="#ap"/></g><path fill="#333" d="M220-157c-53 9-28 100-34 157h-49v-107c1-27-5-49-29-50C55-147 81-57 75 0H25l-1-190h47c2 12-1 28 3 38 10-53 101-56 108 0 13-22 24-43 59-42 82 1 51 116 57 194h-49v-107c-1-25-5-48-29-50" id="aD"/><path fill="#333" d="M123 10C108 53 80 86 19 72V37c35 8 53-11 59-39L3-190h52l48 148c12-52 28-100 44-148h51" id="aE"/><g id="t"><use transform="matrix(0.04938271604938272,0,0,0.04938271604938272,0,0)" xlink:href="#aD"/><use transform="matrix(0.04938271604938272,0,0,0.04938271604938272,15.80246913580247,0)" xlink:href="#au"/><use transform="matrix(0.04938271604938272,0,0,0.04938271604938272,26.617283950617285,0)" xlink:href="#ay"/><use transform="matrix(0.04938271604938272,0,0,0.04938271604938272,37.4320987654321,0)" xlink:href="#av"/><use transform="matrix(0.04938271604938272,0,0,0.04938271604938272,47.308641975308646,0)" xlink:href="#aE"/></g><g id="u"><use transform="matrix(0.04938271604938272,0,0,0.04938271604938272,0,0)" xlink:href="#aD"/><use transform="matrix(0.04938271604938272,0,0,0.04938271604938272,15.80246913580247,0)" xlink:href="#au"/><use transform="matrix(0.04938271604938272,0,0,0.04938271604938272,26.617283950617285,0)" xlink:href="#ay"/><use transform="matrix(0.04938271604938272,0,0,0.04938271604938272,37.4320987654321,0)" xlink:href="#av"/><use transform="matrix(0.04938271604938272,0,0,0.04938271604938272,47.308641975308646,0)" xlink:href="#aE"/></g><g id="v"><use transform="matrix(0.04938271604938272,0,0,0.04938271604938272,0,0)" xlink:href="#ax"/><use transform="matrix(0.04938271604938272,0,0,0.04938271604938272,4.938271604938272,0)" xlink:href="#ay"/><use transform="matrix(0.04938271604938272,0,0,0.04938271604938272,15.753086419753087,0)" xlink:href="#ao"/><use transform="matrix(0.04938271604938272,0,0,0.04938271604938272,25.629629629629633,0)" xlink:href="#av"/><use transform="matrix(0.04938271604938272,0,0,0.04938271604938272,35.50617283950618,0)" xlink:href="#ar"/><use transform="matrix(0.04938271604938272,0,0,0.04938271604938272,42.41975308641976,0)" xlink:href="#ap"/></g><path fill="#333" d="M195-6C206 82 75 100 31 46c-4-6-6-13-8-21l49-6c3 16 16 24 34 25 40 0 42-37 40-79-11 22-30 35-61 35-53 0-70-43-70-97 0-56 18-96 73-97 30 0 46 14 59 34l2-30h47zm-90-29c32 0 41-27 41-63 0-35-9-62-40-62-32 0-39 29-40 63 0 36 9 62 39 62" id="aF"/><g id="w"><use transform="matrix(0.04938271604938272,0,0,0.04938271604938272,0,0)" xlink:href="#ar"/><use transform="matrix(0.04938271604938272,0,0,0.04938271604938272,6.913580246913581,0)" xlink:href="#av"/><use transform="matrix(0.04938271604938272,0,0,0.04938271604938272,16.790123456790127,0)" xlink:href="#aD"/><use transform="matrix(0.04938271604938272,0,0,0.04938271604938272,32.592592592592595,0)" xlink:href="#aq"/><use transform="matrix(0.04938271604938272,0,0,0.04938271604938272,42.46913580246914,0)" xlink:href="#ax"/><use transform="matrix(0.04938271604938272,0,0,0.04938271604938272,47.40740740740741,0)" xlink:href="#ay"/><use transform="matrix(0.04938271604938272,0,0,0.04938271604938272,58.22222222222223,0)" xlink:href="#ax"/><use transform="matrix(0.04938271604938272,0,0,0.04938271604938272,63.1604938271605,0)" xlink:href="#ay"/><use transform="matrix(0.04938271604938272,0,0,0.04938271604938272,73.97530864197532,0)" xlink:href="#aF"/></g><path fill="#333" d="M135-194c53 0 70 44 70 98 0 56-19 98-73 100-31 1-45-17-59-34 3 33 2 69 2 105H25l-1-265h48c2 10 0 23 3 31 11-24 29-35 60-35zM114-30c33 0 39-31 40-66 0-38-9-64-40-64-56 0-55 130 0 130" id="aG"/><g id="x"><use transform="matrix(0.04938271604938272,0,0,0.04938271604938272,0,0)" xlink:href="#aw"/><use transform="matrix(0.04938271604938272,0,0,0.04938271604938272,10.814814814814815,0)" xlink:href="#ax"/><use transform="matrix(0.04938271604938272,0,0,0.04938271604938272,15.753086419753087,0)" xlink:href="#ao"/><use transform="matrix(0.04938271604938272,0,0,0.04938271604938272,25.629629629629633,0)" xlink:href="#aG"/><use transform="matrix(0.04938271604938272,0,0,0.04938271604938272,36.44444444444445,0)" xlink:href="#av"/><use transform="matrix(0.04938271604938272,0,0,0.04938271604938272,46.320987654320994,0)" xlink:href="#ay"/><use transform="matrix(0.04938271604938272,0,0,0.04938271604938272,57.135802469135804,0)" xlink:href="#ao"/><use transform="matrix(0.04938271604938272,0,0,0.04938271604938272,67.01234567901236,0)" xlink:href="#av"/></g><g id="y"><use transform="matrix(0.04938271604938272,0,0,0.04938271604938272,0,0)" xlink:href="#as"/><use transform="matrix(0.04938271604938272,0,0,0.04938271604938272,9.876543209876544,0)" xlink:href="#at"/><use transform="matrix(0.04938271604938272,0,0,0.04938271604938272,20.69135802469136,0)" xlink:href="#aq"/><use transform="matrix(0.04938271604938272,0,0,0.04938271604938272,30.567901234567906,0)" xlink:href="#ay"/><use transform="matrix(0.04938271604938272,0,0,0.04938271604938272,41.38271604938272,0)" xlink:href="#aF"/><use transform="matrix(0.04938271604938272,0,0,0.04938271604938272,52.19753086419754,0)" xlink:href="#av"/></g></defs></g></svg>